Coordinates
version=1
nRows=22
nColumns=24
inDegrees=yes

Units are S.I. units (second, meters, Newtons, ...)
Angles are in degrees.

endheader
time	pelvis_tilt	pelvis_list	pelvis_rotation	pelvis_tx	pelvis_ty	pelvis_tz	hip_flexion_r	hip_adduction_r	hip_rotation_r	knee_angle_r	ankle_angle_r	subtalar_angle_r	mtp_angle_r	hip_flexion_l	hip_adduction_l	hip_rotation_l	knee_angle_l	ankle_angle_l	subtalar_angle_l	mtp_angle_l	lumbar_extension	lumbar_bending	lumbar_rotation
      1.21616667	     -4.74254919	     -1.78986991	     -9.56182114	      0.03120207	      0.86771690	      0.32043641	    -15.78805623	      5.21937208	      5.41857625	    -10.70539612	     19.40394672	     12.08625134	     12.92707193	     33.75733177	     -5.80688359	     -9.25229075	     -6.04578956	      4.53334198	     -1.27190026	      1.02599604	     -3.28361754	      3.88083173	     13.37041106
      1.22033333	     -4.84388733	     -1.72918613	     -9.58011445	      0.03690817	      0.86652264	      0.32031775	    -15.85265760	      5.10631152	      5.40490339	    -11.13022866	     19.29694189	     12.10159375	     12.97048492	     34.00607586	     -5.73076382	     -9.10119177	     -6.74665509	      4.42627985	     -1.42270698	      1.04209877	     -3.15382511	      3.72779798	     13.40393002
      1.22450000	     -4.93017776	     -1.63878364	     -9.61798290	      0.04267682	      0.86541683	      0.32021195	    -15.90584066	      4.95284081	      5.39073510	    -11.60440348	     19.18102887	     12.10490087	     13.02847368	     34.21521323	     -5.63415322	     -9.05595821	     -7.44310678	      4.20296162	     -1.55845234	      1.06210785	     -3.01644808	      3.53737370	     13.41923788
      1.22866667	     -5.05917612	     -1.54232262	     -9.64344041	      0.04845723	      0.86428735	      0.32007953	    -15.89258770	      4.80368314	      5.37883329	    -12.11665014	     19.05322540	     12.15939004	     13.14007923	     34.47088687	     -5.52665574	     -8.96814474	     -8.16789884	      3.93386771	     -1.71058654	      1.10463481	     -2.85508386	      3.33807237	     13.43113585
      1.23283333	     -5.17381747	     -1.44628421	     -9.65026428	      0.05427827	      0.86322073	      0.31989159	    -15.87943614	      4.65350707	      5.32957242	    -12.65974125	     18.92934680	     12.23602361	     13.40492696	     34.71120896	     -5.40264065	     -8.87850331	     -8.91951072	      3.60684870	     -1.95714184	      1.21097267	     -2.69941499	      3.15442695	     13.43282551
      1.23700000	     -5.25486682	     -1.29799766	     -9.61932486	      0.06022883	      0.86226586	      0.31961256	    -15.89332739	      4.43846597	      5.15637271	    -13.19916777	     18.66841182	     12.39589285	     14.94833248	     34.86193170	     -5.17784719	     -8.68060358	     -9.56989999	      3.17529197	     -2.41887610	      1.86791568	     -2.55522185	      2.87838926	     13.41386559
      1.24116667	     -5.37408137	     -1.18570101	     -9.62070003	      0.06612675	      0.86133081	      0.31944141	    -15.85477440	      4.28433574	      5.18779244	    -13.77258466	     18.36389303	     12.25169685	     15.05231396	     35.09666679	     -5.04393804	     -8.68852899	    -10.34761047	      2.75330361	     -2.50483966	      1.90984182	     -2.39542541	      2.65810810	     13.38373037
      1.24533333	     -5.51470065	     -1.07873928	     -9.58102120	      0.07206201	      0.86038674	      0.31916777	    -15.77379483	      4.14221894	      5.13314240	    -14.38579557	     18.08996534	     12.22582995	     15.31940617	     35.36209024	     -4.87952645	     -8.57551077	    -11.15039325	      2.31437185	     -2.83630807	      2.01722126	     -2.19210464	      2.46429265	     13.33173434
      1.24950000	     -5.62959558	     -0.92583698	     -9.52834437	      0.07809349	      0.85956788	      0.31886151	    -15.70662668	      3.94492149	      5.04095996	    -15.00528616	     17.66057068	     12.20041995	     15.52439755	     35.56794109	     -4.65593364	     -8.49012514	    -11.89588796	      1.81452157	     -3.10603574	      2.09373059	     -2.02057216	      2.18001434	     13.28392413
      1.25366667	     -5.72138712	     -0.75797507	     -9.47335519	      0.08414368	      0.85883394	      0.31850136	    -15.62355871	      3.71951401	      4.89862815	    -15.68954424	     17.22712859	     12.19023740	     19.74699537	     35.73889469	     -4.40033932	     -8.37079388	    -12.63061639	      1.28586289	     -3.62322162	      3.71829579	     -1.86212635	      1.89315845	     13.21533975
      1.25783333	     -5.84615877	     -0.62775169	     -9.36838834	      0.09022143	      0.85810575	      0.31811366	    -15.52160369	      3.56303589	      4.78573890	    -16.35282961	     16.70191203	     12.14188541	     19.78183324	     35.98270716	     -4.17410881	     -8.25491046	    -13.45116716	      0.78569740	     -3.86020778	      3.73270629	     -1.67811660	      1.65135679	     13.15388212
      1.26200000	     -5.98930436	     -0.47954382	     -9.26605507	      0.09628889	      0.85739831	      0.31767417	    -15.34522333	      3.38643163	      4.65552575	    -17.11982956	     16.27197163	     12.11427446	     19.93064557	     36.24367018	     -3.91874732	     -8.08001574	    -14.27380872	      0.27966763	     -4.36032204	      3.77763984	     -1.46817990	      1.40484236	     13.03311131
      1.26616667	     -6.09336929	     -0.30387908	     -9.15414347	      0.10240864	      0.85682766	      0.31718861	    -15.17782493	      3.16671909	      4.46733312	    -17.93244503	     15.71883944	     12.13826878	     20.32124765	     36.43299860	     -3.61419457	     -7.86827759	    -15.04386110	     -0.18552632	     -4.88075102	      3.88290442	     -1.31548569	      1.11379171	     12.90968373
      1.27033333	     -6.22836925	     -0.13721101	     -9.01812627	      0.10857502	      0.85625821	      0.31670633	    -14.98155975	      2.97607539	      4.31410342	    -18.73554027	     15.14901033	     12.08897294	     20.62865309	     36.70078635	     -3.33346690	     -7.75144149	    -15.92316390	     -0.63593397	     -5.23606011	      3.95092640	     -1.09534419	      0.82649860	     12.81137676
      1.27450000	     -6.30473761	      0.06034756	     -8.87277916	      0.11480425	      0.85584989	      0.31616454	    -14.81368776	      2.72945375	      4.07783583	    -19.57529540	     14.40748423	     12.06787122	     24.81637288	     36.87549476	     -2.99733099	     -7.59686020	    -16.75306769	     -1.00660055	     -5.63539453	      4.81084699	     -0.95965215	      0.48890272	     12.72446562
      1.27866667	     -6.39948023	      0.24151985	     -8.71684776	      0.12104561	      0.85547809	      0.31562814	    -14.61449358	      2.51529361	      3.89900902	    -20.44240853	     13.66329432	     12.02232728	     24.85237551	     37.09132923	     -2.68569620	     -7.46855771	    -17.64681814	     -1.28013698	     -5.90935752	      4.81497264	     -0.79819001	      0.17044049	     12.62862592
      1.28283333	     -6.50468671	      0.42378314	     -8.54776097	      0.12725746	      0.85511753	      0.31502973	    -14.34477740	      2.29790334	      3.66363109	    -21.42423269	     12.99493269	     12.02076752	     25.01156601	     37.32292564	     -2.35325266	     -7.26094484	    -18.55095363	     -1.55564031	     -6.36302078	      4.82347096	     -0.63196921	     -0.11467352	     12.47178034
      1.28700000	     -6.53792391	      0.66148840	     -8.35453493	      0.13359964	      0.85494422	      0.31435756	    -14.14932414	      1.99714396	      3.34530868	    -22.38534054	     12.22665918	     12.10593349	     25.79926976	     37.44226510	     -1.93059161	     -7.03048740	    -19.39638673	     -1.75741141	     -6.88370216	      4.84365458	     -0.53409207	     -0.51086159	     12.30519053
      1.29116667	     -6.63999888	      0.83878313	     -8.18039244	      0.13985541	      0.85470939	      0.31375724	    -13.83060310	      1.78239606	      3.11902250	    -23.44213546	     11.39516049	     12.06491765	     26.02989090	     37.67748420	     -1.61761727	     -6.88364725	    -20.35246208	     -1.83762352	     -7.05219241	      4.84300527	     -0.37460437	     -0.79538459	     12.22732294
      1.29533333	     -6.69386500	      1.05536189	     -7.98029944	      0.14618926	      0.85459658	      0.31307115	    -13.54223575	      1.50559015	      2.80135006	    -24.52362900	     10.54206492	     12.11990870	     26.39900570	     37.83475214	     -1.22703569	     -6.67693927	    -21.26063680	     -1.88418168	     -7.37996760	      4.82862085	     -0.25634854	     -1.14185214	     12.08514069
      1.29950000	     -6.68251926	      1.29001203	     -7.78206398	      0.15259269	      0.85465124	      0.31239126	    -13.31175075	      1.19126510	      2.46734895	    -25.59696697	      9.52669639	     12.11785609	     30.60231512	     37.90066157	     -0.81527618	     -6.50733645	    -22.15115763	     -1.79851781	     -7.63691327	      4.52179551	     -0.21537413	     -1.53269906	     12.00556964
      1.30366667	     -6.67021500	      1.50917958	     -7.57402162	      0.15899422	      0.85474026	      0.31171169	    -13.05890641	      0.89836301	      2.14842639	    -26.72002348	      8.55796542	     12.12937703	     30.61613200	     37.97162964	     -0.42214251	     -6.35082064	    -23.06827551	     -1.64183076	     -7.78698775	      4.51913492	     -0.18366404	     -1.90555075	     11.93719866
